<svg xmlns="http://www.w3.org/2000/svg" width="37.87" height="61.526" viewBox="0 0 37.87 61.526">
  <g id="شعار_الهيئة_السعودية_للمدن_الصناعية_ومناطق_التقنية_PNG_SVG" data-name="شعار الهيئة السعودية للمدن الصناعية ومناطق التقنية – PNG – SVG" transform="translate(0)">
    <g id="Group_2653" data-name="Group 2653" transform="translate(4.707 56.172)">
      <path id="Path_3870" data-name="Path 3870" d="M258.67,643.407c-.736,0-1.331-.611-1.331-1.622s.6-1.623,1.331-1.623a1.654,1.654,0,0,1,0,3.245m-.01-4.287a2.677,2.677,0,1,0,0,5.354,2.677,2.677,0,1,0,0-5.354" transform="translate(-238.17 -639.12)" fill="#fff"/>
      <path id="Path_3871" data-name="Path 3871" d="M126.64,643.407c-.736,0-1.331-.611-1.331-1.622s.6-1.623,1.331-1.623a1.654,1.654,0,0,1,0,3.245m-.01-4.287a2.677,2.677,0,1,0,0,5.354,2.677,2.677,0,1,0,0-5.354" transform="translate(-117.744 -639.12)" fill="#fff"/>
      <path id="Path_3872" data-name="Path 3872" d="M58.118,639.25l-1.84,2.058h0l-1.84-2.058-.885.01s.011,3.753.011,5.2v.124h1.227v-3.077l1.485,1.575v.006l0,0,0,0v-.006l1.485-1.575v3.077h1.227v-.124c0-1.448.011-5.2.011-5.2Z" transform="translate(-53.55 -639.238)" fill="#fff"/>
    </g>
    <path id="Path_3873" data-name="Path 3873" d="M329.116,639.35H327.89l0,3.088-2.47-3.088h-.884l.011,5.324h1.226V641.6l2.443,3.077h.907Z" transform="translate(-296.016 -583.158)" fill="#fff"/>
    <path id="Path_3874" data-name="Path 3874" d="M197.455,642.678a1.32,1.32,0,0,1-1.346.911c-.156,0-.379-.026-.535-.048v-3.176a2.847,2.847,0,0,1,1.034.115,1.31,1.31,0,0,1,.869.926,2.087,2.087,0,0,1-.024,1.273m.373-2.923a3.032,3.032,0,0,0-1.577-.436,10.156,10.156,0,0,0-1.165.059c-.275.026-.545.095-.815.144v4.928c.391.055.778.122,1.166.163a4.412,4.412,0,0,0,1.842-.138,2.242,2.242,0,0,0,1.517-1.436,3.171,3.171,0,0,0,.065-1.838,2.259,2.259,0,0,0-1.034-1.446" transform="translate(-177.196 -583.128)" fill="#fff"/>
    <path id="Path_3875" data-name="Path 3875" d="M61.543,128.33v13.31L54.18,145.2V131.876Z" transform="translate(-49.418 -117.051)" fill="#fff"/>
    <path id="Path_3876" data-name="Path 3876" d="M354.43,180.67v10.609l1.992-.95v-8.7Z" transform="translate(-323.279 -164.791)" fill="#fff"/>
    <path id="Path_3877" data-name="Path 3877" d="M158.739,0l-5.4,3.54v7.181l3.763,1.81V33.824l1.636.483Z" transform="translate(-139.863)" fill="#fff"/>
    <path id="Path_3878" data-name="Path 3878" d="M263.226,101.835v4.493l-1.963-.942v12.369l-5.072-2.4v-9.263l3.272-1.574V100.03Z" transform="translate(-233.673 -91.238)" fill="#fff"/>
    <path id="Path_3879" data-name="Path 3879" d="M223.4,425.372l7.275,3.045h10.961l-14.577-4.576Z" transform="translate(-203.765 -386.589)" fill="#fff"/>
    <path id="Path_3880" data-name="Path 3880" d="M55.913,370.16H53.5l9.888,4.138,3.356-.979Z" transform="translate(-48.798 -337.627)" fill="#fff"/>
    <path id="Path_3881" data-name="Path 3881" d="M30.726,370.16,20.08,373.265l-1.159.338-3.531,1.029-.335.1L0,379.454H10.933l7.482-3.131.506-.212,3.531-1.478.993-.416,9.7-4.057Z" transform="translate(0 -337.627)" fill="#fff"/>
    <path id="Path_3882" data-name="Path 3882" d="M162.8,532.177a2.578,2.578,0,0,1-.235-1.222,2.1,2.1,0,0,1,.384-1.233,1.572,1.572,0,0,1,2.572.112,2.377,2.377,0,0,1,.314,1.456,2.287,2.287,0,0,1-.253.952,1.47,1.47,0,0,1-1.386.829,1.492,1.492,0,0,1-1.4-.895m2.68,1.979a2.858,2.858,0,0,0,1.824-1.8,3.8,3.8,0,0,0,.118-2.184,2.809,2.809,0,0,0-1.467-1.951,3.736,3.736,0,0,0-1.738-.4,4.024,4.024,0,0,0-1.305.211,2.826,2.826,0,0,0-1.816,1.786,3.92,3.92,0,0,0-.187.794s0,.006,0,.01a3.593,3.593,0,0,1-.087.608,1.238,1.238,0,0,1-.224.409.8.8,0,0,1-.3.218.925.925,0,0,1-.329.083h-3.775c-.025,0-.047,0-.07,0h-2.258V530.8a5.181,5.181,0,0,0-.146-1.262,2.082,2.082,0,0,0-.505-.953,2.477,2.477,0,0,0-1-.634,4.717,4.717,0,0,0-1.415-.193h-1.956V529.3h2.19a1.319,1.319,0,0,1,.556.116,1.048,1.048,0,0,1,.4.3,1.2,1.2,0,0,1,.23.435,2.067,2.067,0,0,1,.073.578v1.2H147.37v1.542h6.537v-.007h2.2c.029,0,.056.007.089.007h3.368a3.583,3.583,0,0,0,.447-.03,2.117,2.117,0,0,0,.462-.11,1.873,1.873,0,0,0,.434-.229,1.309,1.309,0,0,0,.352-.372,2.771,2.771,0,0,0,1.635,1.412,3.848,3.848,0,0,0,2.59.005" transform="translate(-134.418 -481.375)" fill="#fff"/>
    <rect id="Rectangle_809" data-name="Rectangle 809" width="1.55" height="1.52" transform="translate(7.39 44.864)" fill="#fff"/>
    <path id="Path_3883" data-name="Path 3883" d="M58.939,527.91v3.233a2.861,2.861,0,0,1-.107.843,1.178,1.178,0,0,1-.366.567,1.624,1.624,0,0,1-.73.33,3.616,3.616,0,0,1-.7.077,3.547,3.547,0,0,1-.7-.077,1.628,1.628,0,0,1-.73-.33,1.186,1.186,0,0,1-.366-.567,2.891,2.891,0,0,1-.107-.843V527.91H53.55v3.42a4.8,4.8,0,0,0,.169,1.283,2.071,2.071,0,0,0,.584,1,3.122,3.122,0,0,0,.546.413,2.974,2.974,0,0,0,.635.281,4.246,4.246,0,0,0,.758.16c.2.024.424.036.658.043h.262c.235-.007.458-.018.658-.043a4.246,4.246,0,0,0,.758-.16,3.021,3.021,0,0,0,.635-.281,3.149,3.149,0,0,0,.545-.413,2.082,2.082,0,0,0,.584-1,4.841,4.841,0,0,0,.168-1.283v-3.42H58.939Z" transform="translate(-48.843 -481.512)" fill="#fff"/>
  </g>
</svg>
